solid OBJECT
  facet normal 1 -0 0
    outer loop
      vertex 7 -9.185786247253418 2
      vertex 7 10.785786628723145 2
      vertex 7 10.785786628723145 3
    endloop
  endfacet
  facet normal 1 -0 0
    outer loop
      vertex 7 -9.185786247253418 2
      vertex 7 10.785786628723145 3
      vertex 7 -9.185786247253418 3
    endloop
  endfacet
  facet normal 0.98229024894805828 0.18736559668616282 -0
    outer loop
      vertex 7 10.785786628723145 2
      vertex 6.767303466796875 12.005730628967285 2
      vertex 6.767303466796875 12.005730628967285 3
    endloop
  endfacet
  facet normal 0.98229024894805828 0.18736559668616282 0
    outer loop
      vertex 7 10.785786628723145 2
      vertex 6.767303466796875 12.005730628967285 3
      vertex 7 10.785786628723145 3
    endloop
  endfacet
  facet normal 0.83581626823615429 0.54900925834797087 -0
    outer loop
      vertex 6.767303466796875 12.005730628967285 2
      vertex 6.0292892456054688 13.129289627075195 2
      vertex 6.0292892456054688 13.129289627075195 3
    endloop
  endfacet
  facet normal 0.83581626823615429 0.54900925834797087 0
    outer loop
      vertex 6.767303466796875 12.005730628967285 2
      vertex 6.0292892456054688 13.129289627075195 3
      vertex 6.767303466796875 12.005730628967285 3
    endloop
  endfacet
  facet normal 0.54900942111844109 0.83581616131969738 -0
    outer loop
      vertex 6.0292892456054688 13.129289627075195 2
      vertex 4.9057307243347168 13.867303848266602 2
      vertex 4.9057307243347168 13.867303848266602 3
    endloop
  endfacet
  facet normal 0.54900942111844109 0.83581616131969738 0
    outer loop
      vertex 6.0292892456054688 13.129289627075195 2
      vertex 4.9057307243347168 13.867303848266602 3
      vertex 6.0292892456054688 13.129289627075195 3
    endloop
  endfacet
  facet normal 0.18736556135404775 0.982290255687433 0
    outer loop
      vertex 4.9057307243347168 13.867303848266602 2
      vertex 3.6857864856719971 14.100000381469727 2
      vertex 3.6857864856719971 14.100000381469727 3
    endloop
  endfacet
  facet normal 0.18736556135404775 0.982290255687433 0
    outer loop
      vertex 4.9057307243347168 13.867303848266602 2
      vertex 3.6857864856719971 14.100000381469727 3
      vertex 4.9057307243347168 13.867303848266602 3
    endloop
  endfacet
  facet normal 0 1 0
    outer loop
      vertex 3.6857864856719971 14.100000381469727 2
      vertex -3.6857864856719971 14.100000381469727 2
      vertex -3.6857864856719971 14.100000381469727 3
    endloop
  endfacet
  facet normal 0 1 0
    outer loop
      vertex 3.6857864856719971 14.100000381469727 2
      vertex -3.6857864856719971 14.100000381469727 3
      vertex 3.6857864856719971 14.100000381469727 3
    endloop
  endfacet
  facet normal -0.18736556135404775 0.982290255687433 0
    outer loop
      vertex -3.6857864856719971 14.100000381469727 2
      vertex -4.9057307243347168 13.867303848266602 2
      vertex -4.9057307243347168 13.867303848266602 3
    endloop
  endfacet
  facet normal -0.18736556135404775 0.982290255687433 0
    outer loop
      vertex -3.6857864856719971 14.100000381469727 2
      vertex -4.9057307243347168 13.867303848266602 3
      vertex -3.6857864856719971 14.100000381469727 3
    endloop
  endfacet
  facet normal -0.54900942111844109 0.83581616131969738 -0
    outer loop
      vertex -4.9057307243347168 13.867303848266602 2
      vertex -6.0292892456054688 13.129289627075195 2
      vertex -6.0292892456054688 13.129289627075195 3
    endloop
  endfacet
  facet normal -0.54900942111844109 0.83581616131969738 0
    outer loop
      vertex -4.9057307243347168 13.867303848266602 2
      vertex -6.0292892456054688 13.129289627075195 3
      vertex -4.9057307243347168 13.867303848266602 3
    endloop
  endfacet
  facet normal -0.83581626823615429 0.54900925834797087 -0
    outer loop
      vertex -6.0292892456054688 13.129289627075195 2
      vertex -6.767303466796875 12.005730628967285 2
      vertex -6.767303466796875 12.005730628967285 3
    endloop
  endfacet
  facet normal -0.83581626823615429 0.54900925834797087 -0
    outer loop
      vertex -6.0292892456054688 13.129289627075195 2
      vertex -6.767303466796875 12.005730628967285 3
      vertex -6.0292892456054688 13.129289627075195 3
    endloop
  endfacet
  facet normal -0.98229024894805828 0.18736559668616282 -0
    outer loop
      vertex -6.767303466796875 12.005730628967285 2
      vertex -7 10.785786628723145 2
      vertex -7 10.785786628723145 3
    endloop
  endfacet
  facet normal -0.98229024894805828 0.18736559668616282 -0
    outer loop
      vertex -6.767303466796875 12.005730628967285 2
      vertex -7 10.785786628723145 3
      vertex -6.767303466796875 12.005730628967285 3
    endloop
  endfacet
  facet normal -1 -0 -0
    outer loop
      vertex -7 10.785786628723145 2
      vertex -7 -9.185786247253418 2
      vertex -7 -9.185786247253418 3
    endloop
  endfacet
  facet normal -1 -0 -0
    outer loop
      vertex -7 10.785786628723145 2
      vertex -7 -9.185786247253418 3
      vertex -7 10.785786628723145 3
    endloop
  endfacet
  facet normal -0.98229027590553453 -0.18736545535778112 -0
    outer loop
      vertex -7 -9.185786247253418 2
      vertex -6.767303466796875 -10.405731201171875 2
      vertex -6.767303466796875 -10.405731201171875 3
    endloop
  endfacet
  facet normal -0.98229027590553453 -0.18736545535778112 -0
    outer loop
      vertex -7 -9.185786247253418 2
      vertex -6.767303466796875 -10.405731201171875 3
      vertex -7 -9.185786247253418 3
    endloop
  endfacet
  facet normal -0.83581605440314521 -0.54900958388898702 -0
    outer loop
      vertex -6.767303466796875 -10.405731201171875 2
      vertex -6.0292892456054688 -11.529289245605469 2
      vertex -6.0292892456054688 -11.529289245605469 3
    endloop
  endfacet
  facet normal -0.83581605440314521 -0.54900958388898702 -0
    outer loop
      vertex -6.767303466796875 -10.405731201171875 2
      vertex -6.0292892456054688 -11.529289245605469 3
      vertex -6.767303466796875 -10.405731201171875 3
    endloop
  endfacet
  facet normal -0.54900942111844109 -0.83581616131969738 -0
    outer loop
      vertex -6.0292892456054688 -11.529289245605469 2
      vertex -4.9057307243347168 -12.267303466796875 2
      vertex -4.9057307243347168 -12.267303466796875 3
    endloop
  endfacet
  facet normal -0.54900942111844109 -0.83581616131969738 -0
    outer loop
      vertex -6.0292892456054688 -11.529289245605469 2
      vertex -4.9057307243347168 -12.267303466796875 3
      vertex -6.0292892456054688 -11.529289245605469 3
    endloop
  endfacet
  facet normal -0.18736556135404775 -0.982290255687433 0
    outer loop
      vertex -4.9057307243347168 -12.267303466796875 2
      vertex -3.6857864856719971 -12.5 2
      vertex -3.6857864856719971 -12.5 3
    endloop
  endfacet
  facet normal -0.18736556135404775 -0.982290255687433 0
    outer loop
      vertex -4.9057307243347168 -12.267303466796875 2
      vertex -3.6857864856719971 -12.5 3
      vertex -4.9057307243347168 -12.267303466796875 3
    endloop
  endfacet
  facet normal 0 -1 -0
    outer loop
      vertex -3.6857864856719971 -12.5 2
      vertex 3.6857864856719971 -12.5 2
      vertex 3.6857864856719971 -12.5 3
    endloop
  endfacet
  facet normal 0 -1 -0
    outer loop
      vertex -3.6857864856719971 -12.5 2
      vertex 3.6857864856719971 -12.5 3
      vertex -3.6857864856719971 -12.5 3
    endloop
  endfacet
  facet normal 0.18736556135404775 -0.982290255687433 0
    outer loop
      vertex 3.6857864856719971 -12.5 2
      vertex 4.9057307243347168 -12.267303466796875 2
      vertex 4.9057307243347168 -12.267303466796875 3
    endloop
  endfacet
  facet normal 0.18736556135404775 -0.982290255687433 0
    outer loop
      vertex 3.6857864856719971 -12.5 2
      vertex 4.9057307243347168 -12.267303466796875 3
      vertex 3.6857864856719971 -12.5 3
    endloop
  endfacet
  facet normal 0.54900942111844109 -0.83581616131969738 -0
    outer loop
      vertex 4.9057307243347168 -12.267303466796875 2
      vertex 6.0292892456054688 -11.529289245605469 2
      vertex 6.0292892456054688 -11.529289245605469 3
    endloop
  endfacet
  facet normal 0.54900942111844109 -0.83581616131969738 -0
    outer loop
      vertex 4.9057307243347168 -12.267303466796875 2
      vertex 6.0292892456054688 -11.529289245605469 3
      vertex 4.9057307243347168 -12.267303466796875 3
    endloop
  endfacet
  facet normal 0.83581605440314521 -0.54900958388898702 -0
    outer loop
      vertex 6.0292892456054688 -11.529289245605469 2
      vertex 6.767303466796875 -10.405731201171875 2
      vertex 6.767303466796875 -10.405731201171875 3
    endloop
  endfacet
  facet normal 0.83581605440314521 -0.54900958388898702 0
    outer loop
      vertex 6.0292892456054688 -11.529289245605469 2
      vertex 6.767303466796875 -10.405731201171875 3
      vertex 6.0292892456054688 -11.529289245605469 3
    endloop
  endfacet
  facet normal 0.98229027590553453 -0.18736545535778112 -0
    outer loop
      vertex 6.767303466796875 -10.405731201171875 2
      vertex 7 -9.185786247253418 2
      vertex 7 -9.185786247253418 3
    endloop
  endfacet
  facet normal 0.98229027590553453 -0.18736545535778112 0
    outer loop
      vertex 6.767303466796875 -10.405731201171875 2
      vertex 7 -9.185786247253418 3
      vertex 6.767303466796875 -10.405731201171875 3
    endloop
  endfacet
  facet normal 0 0 -1
    outer loop
      vertex -6.0292892456054688 -11.529289245605469 2
      vertex -6.767303466796875 -10.405731201171875 2
      vertex -7 -9.185786247253418 2
    endloop
  endfacet
  facet normal 0 0 -1
    outer loop
      vertex -7 -9.185786247253418 2
      vertex -3.6857864856719971 -12.5 2
      vertex -4.9057307243347168 -12.267303466796875 2
    endloop
  endfacet
  facet normal -0 -0 -1
    outer loop
      vertex -6.0292892456054688 -11.529289245605469 2
      vertex -7 -9.185786247253418 2
      vertex -4.9057307243347168 -12.267303466796875 2
    endloop
  endfacet
  facet normal -0 0 -1
    outer loop
      vertex -7 -9.185786247253418 2
      vertex -7 10.785786628723145 2
      vertex 7 -9.185786247253418 2
    endloop
  endfacet
  facet normal 0 -0 -1
    outer loop
      vertex -4.9057307243347168 13.867303848266602 2
      vertex -7 10.785786628723145 2
      vertex -6.767303466796875 12.005730628967285 2
    endloop
  endfacet
  facet normal -0 0 -1
    outer loop
      vertex -6.0292892456054688 13.129289627075195 2
      vertex -4.9057307243347168 13.867303848266602 2
      vertex -6.767303466796875 12.005730628967285 2
    endloop
  endfacet
  facet normal -0 0 -1
    outer loop
      vertex -3.6857864856719971 14.100000381469727 2
      vertex -7 10.785786628723145 2
      vertex -4.9057307243347168 13.867303848266602 2
    endloop
  endfacet
  facet normal -0 -0 -1
    outer loop
      vertex 7 10.785786628723145 2
      vertex -7 10.785786628723145 2
      vertex -3.6857864856719971 14.100000381469727 2
    endloop
  endfacet
  facet normal 0 -0 -1
    outer loop
      vertex 7 -9.185786247253418 2
      vertex -3.6857864856719971 -12.5 2
      vertex -7 -9.185786247253418 2
    endloop
  endfacet
  facet normal 0 0 -1
    outer loop
      vertex 6.767303466796875 -10.405731201171875 2
      vertex 4.9057307243347168 -12.267303466796875 2
      vertex 3.6857864856719971 -12.5 2
    endloop
  endfacet
  facet normal -0 0 -1
    outer loop
      vertex 3.6857864856719971 -12.5 2
      vertex 7 -9.185786247253418 2
      vertex 6.767303466796875 -10.405731201171875 2
    endloop
  endfacet
  facet normal 0 -0 -1
    outer loop
      vertex 6.0292892456054688 -11.529289245605469 2
      vertex 4.9057307243347168 -12.267303466796875 2
      vertex 6.767303466796875 -10.405731201171875 2
    endloop
  endfacet
  facet normal -0 0 -1
    outer loop
      vertex 7 -9.185786247253418 2
      vertex -7 10.785786628723145 2
      vertex 7 10.785786628723145 2
    endloop
  endfacet
  facet normal -0 0 -1
    outer loop
      vertex 7 10.785786628723145 2
      vertex 3.6857864856719971 14.100000381469727 2
      vertex 4.9057307243347168 13.867303848266602 2
    endloop
  endfacet
  facet normal 0 0 -1
    outer loop
      vertex 6.0292892456054688 13.129289627075195 2
      vertex 6.767303466796875 12.005730628967285 2
      vertex 4.9057307243347168 13.867303848266602 2
    endloop
  endfacet
  facet normal -0 0 -1
    outer loop
      vertex 7 10.785786628723145 2
      vertex 4.9057307243347168 13.867303848266602 2
      vertex 6.767303466796875 12.005730628967285 2
    endloop
  endfacet
  facet normal 0 0 -1
    outer loop
      vertex 3.6857864856719971 14.100000381469727 2
      vertex 7 10.785786628723145 2
      vertex -3.6857864856719971 14.100000381469727 2
    endloop
  endfacet
  facet normal 0 -0 -1
    outer loop
      vertex 3.6857864856719971 -12.5 2
      vertex -3.6857864856719971 -12.5 2
      vertex 7 -9.185786247253418 2
    endloop
  endfacet
  facet normal 0 0 1
    outer loop
      vertex -6.0292892456054688 -11.529289245605469 3
      vertex -7 -9.185786247253418 3
      vertex -6.767303466796875 -10.405731201171875 3
    endloop
  endfacet
  facet normal 0 0 1
    outer loop
      vertex -7 -9.185786247253418 3
      vertex -4.9057307243347168 -12.267303466796875 3
      vertex -3.6857864856719971 -12.5 3
    endloop
  endfacet
  facet normal 0 0 1
    outer loop
      vertex -6.0292892456054688 -11.529289245605469 3
      vertex -4.9057307243347168 -12.267303466796875 3
      vertex -7 -9.185786247253418 3
    endloop
  endfacet
  facet normal 0 0 1
    outer loop
      vertex -7 -9.185786247253418 3
      vertex 7 -9.185786247253418 3
      vertex -7 10.785786628723145 3
    endloop
  endfacet
  facet normal 0 -0 1
    outer loop
      vertex -4.9057307243347168 13.867303848266602 3
      vertex -6.767303466796875 12.005730628967285 3
      vertex -7 10.785786628723145 3
    endloop
  endfacet
  facet normal 0 -0 1
    outer loop
      vertex -6.0292892456054688 13.129289627075195 3
      vertex -6.767303466796875 12.005730628967285 3
      vertex -4.9057307243347168 13.867303848266602 3
    endloop
  endfacet
  facet normal -0 0 1
    outer loop
      vertex -3.6857864856719971 14.100000381469727 3
      vertex -4.9057307243347168 13.867303848266602 3
      vertex -7 10.785786628723145 3
    endloop
  endfacet
  facet normal -0 -0 1
    outer loop
      vertex 7 10.785786628723145 3
      vertex -3.6857864856719971 14.100000381469727 3
      vertex -7 10.785786628723145 3
    endloop
  endfacet
  facet normal 0 -0 1
    outer loop
      vertex 7 -9.185786247253418 3
      vertex -7 -9.185786247253418 3
      vertex -3.6857864856719971 -12.5 3
    endloop
  endfacet
  facet normal 0 0 1
    outer loop
      vertex 6.767303466796875 -10.405731201171875 3
      vertex 3.6857864856719971 -12.5 3
      vertex 4.9057307243347168 -12.267303466796875 3
    endloop
  endfacet
  facet normal -0 0 1
    outer loop
      vertex 3.6857864856719971 -12.5 3
      vertex 6.767303466796875 -10.405731201171875 3
      vertex 7 -9.185786247253418 3
    endloop
  endfacet
  facet normal 0 0 1
    outer loop
      vertex 6.0292892456054688 -11.529289245605469 3
      vertex 6.767303466796875 -10.405731201171875 3
      vertex 4.9057307243347168 -12.267303466796875 3
    endloop
  endfacet
  facet normal -0 -0 1
    outer loop
      vertex 7 -9.185786247253418 3
      vertex 7 10.785786628723145 3
      vertex -7 10.785786628723145 3
    endloop
  endfacet
  facet normal -0 0 1
    outer loop
      vertex 7 10.785786628723145 3
      vertex 4.9057307243347168 13.867303848266602 3
      vertex 3.6857864856719971 14.100000381469727 3
    endloop
  endfacet
  facet normal -0 0 1
    outer loop
      vertex 6.0292892456054688 13.129289627075195 3
      vertex 4.9057307243347168 13.867303848266602 3
      vertex 6.767303466796875 12.005730628967285 3
    endloop
  endfacet
  facet normal -0 0 1
    outer loop
      vertex 7 10.785786628723145 3
      vertex 6.767303466796875 12.005730628967285 3
      vertex 4.9057307243347168 13.867303848266602 3
    endloop
  endfacet
  facet normal -0 -0 1
    outer loop
      vertex 3.6857864856719971 14.100000381469727 3
      vertex -3.6857864856719971 14.100000381469727 3
      vertex 7 10.785786628723145 3
    endloop
  endfacet
  facet normal 0 0 1
    outer loop
      vertex 3.6857864856719971 -12.5 3
      vertex 7 -9.185786247253418 3
      vertex -3.6857864856719971 -12.5 3
    endloop
  endfacet
endsolid OBJECT
